<?xml version="1.0"?><svg width="640" height="480" xmlns="http://www.w3.org/2000/svg">
 <title>baby elephant and adult elephant</title>
 <g display="inline">
  <title>Layer 1</title>
  <path fill="#000000" fill-rule="evenodd" stroke-width="1px" id="path3175" d="m116.751152,358.527588c-7.485764,-0.203186 -13.172531,2.318481 -18.496994,7.074402c-3.691101,-2.985565 -10.185181,-2.624115 -15.122154,-3.334351c-20.409954,-1.945313 -42.173775,5.999542 -52.590923,23.659729c-4.44976,6.894196 -8.688961,15.014526 -7.566311,23.699554c0.758991,3.860901 5.834551,4.362701 8.382671,2.253052c0.76902,-0.151611 1.643391,-2.463165 1.840637,-0.781067c2.000542,5.822968 6.247242,10.682678 9.301651,15.98172c1.55748,9.439331 -4.069138,18.589355 -1.022549,27.952911c3.511959,6.36142 11.778809,7.257416 18.159271,6.669037c5.094131,-0.123383 11.665985,0.735931 15.056107,-3.695007c2.560181,-5.022583 -2.301605,-10.026154 -3.600761,-14.855133c-0.821877,-2.536469 -1.544334,-6.371063 0.731163,-8.050934c2.389717,0.35614 4.240311,2.569061 6.789688,2.553467c4.755005,0.968414 9.576202,-0.657867 14.075882,-0.916229c3.514771,5.440582 0.295303,11.598145 0.096512,17.303436c-0.03392,3.568787 2.930092,6.497101 6.412521,6.969452c5.913925,1.478638 12.056656,0.709625 17.947128,0.270386c4.324226,-0.942474 7.463638,-5.751526 5.424706,-10.123749c-1.817841,-5.413391 -4.385529,-11.254761 -2.26252,-16.732666c8.891426,-7.462891 12.046455,-9.603455 14.5942,-10.0737c45.984756,-10.511078 61.486847,-61.651611 43.857224,-63.444427c-6.974213,14.686218 -15.199081,19.398804 -27.284378,6.843658c-7.47728,-6.554382 -17.752182,-7.385437 -26.969521,-8.848022c-2.580551,-0.279144 -5.172791,-0.432831 -7.753235,-0.375519l-0.000015,0z"/>
  <path fill="#b0b0c7" fill-rule="evenodd" stroke-width="1px" id="path2383" d="m179.096313,364.30127c-1.339874,5.628357 1.396851,12.935608 -15.91011,14.76236c-16.044708,-3.098572 -14.345795,-7.051971 -20.924118,-11.7164c-7.967148,-2.118073 -40.267082,-13.313538 -45.189384,10.590332c-4.922302,23.9039 15.117142,31.770996 20.21814,30.863281c5.100998,-0.907745 10.249619,-13.61615 10.249619,-13.61615c0,0 -1.763062,13.918701 -8.045807,15.431641c-6.2827,1.512878 -22.131279,-0.907776 -26.591385,-18.457458c-4.460098,-17.549713 4.69117,-22.391022 -1.4319,-23.9039c-8.155716,-2.015137 -29.881668,-4.841309 -46.845257,7.564545c-16.9636,12.405792 -22.18848,36.309692 -17.76412,33.889038c4.424379,-2.420624 6.170759,-10.28772 7.35008,-4.538727c1.179371,5.749084 5.84436,14.826508 9.949471,18.457458c4.105099,3.630981 -1.810722,25.71936 -0.717121,29.652924c1.093578,3.933533 7.50494,5.14389 12.346241,5.14389c4.84129,0 15.748501,0.302582 14.986095,-3.025818c-0.762383,-3.3284 -4.679283,-9.380005 -5.282059,-15.734192c-0.602798,-6.354187 3.835861,-8.47226 5.665634,-8.169708c1.829765,0.302582 2.854279,2.92041 10.43071,3.025818c7.263611,0.101074 7.16188,-2.118073 10.201981,-1.81546c3.0401,0.302582 5.070015,4.841278 5.327332,10.28772c0.257309,5.446442 -1.646332,9.985168 -1.503372,13.010986c0.14296,3.025818 21.957382,3.630951 22.693565,0c0.736214,-3.630981 -3.123474,-8.47226 -3.337898,-13.010986c-0.214447,-4.538696 -0.038132,-13.616119 5.596542,-16.036774c5.634659,-2.420654 10.040138,-6.941162 15.925926,-5.625c13.562744,-2.001617 44.518188,-25.209717 48.214539,-53.759766l-5.613342,-3.269653z"/>
  <path fill="#ffffff" fill-rule="evenodd" stroke="#000000" stroke-width="2" stroke-miterlimit="4" id="path3219" d="m65.160561,460.5867c3.714508,-0.509796 8.262627,-1.359467 8.150238,-3.738556c-0.112396,-2.37912 -3.080261,-7.647156 -3.080261,-7.647156c0,0 -2.41925,-0.84967 -4.354126,1.359497c-1.93486,2.209167 -2.12352,9.006622 -0.715851,10.026215z"/>
  <path fill="#000000" fill-rule="evenodd" stroke-width="1px" id="path3175" d="m370.7901,253.755524c-15.574158,-0.422699 -27.405518,4.823608 -38.483093,14.718353c-7.679352,-6.211426 -21.190308,-5.459503 -31.461761,-6.937103c-42.462982,-4.047272 -87.742767,12.482056 -109.41571,49.224213c-9.257767,14.343414 -18.077423,31.237793 -15.74176,49.307037c1.579117,8.032593 12.138824,9.076599 17.440216,4.6875c1.599915,-0.31543 3.419083,-5.124634 3.829483,-1.625c4.162094,12.114685 12.997406,22.225342 19.352127,33.25c3.240326,19.638611 -8.465866,38.675293 -2.127426,58.15625c7.306656,13.234985 24.50589,15.099121 37.780472,13.875c10.598389,-0.256714 24.271149,1.531128 31.32431,-7.6875c5.326477,-10.449524 -4.788483,-20.859436 -7.491364,-30.90625c-1.709961,-5.2771 -3.213013,-13.255005 1.521149,-16.75c4.971832,0.740967 8.821991,5.344971 14.126007,5.3125c9.892822,2.014771 19.92334,-1.368713 29.284943,-1.90625c7.3125,11.319214 0.61438,24.130127 0.200806,36c-0.070587,7.424866 6.096039,13.517273 13.341278,14.5c12.303955,3.076294 25.083954,1.476379 37.339081,0.5625c8.996613,-1.960815 15.528168,-11.966064 11.286163,-21.0625c-3.782013,-11.262634 -9.124115,-23.415649 -4.707184,-34.8125c2.350128,-7.751221 9.57019,-12.183899 16.779266,-14.59375c1.719391,-0.9328 7.837799,-5.38623 7.347076,-3.691589c-8.79953,9.852722 -20.62088,21.585449 -16.82074,36.660339c2.504669,10.739197 8.350922,22.173218 18.401855,27.6875c13.89743,6.040649 32.244904,-6.492798 28.314728,-21.78125c-1.262512,-4.534973 -5.778381,-7.315002 -9.146667,-9.71875c1.506104,-5.968384 8.687134,-8.446167 12.751709,-12.53125c14.176758,-10.298645 26.959534,-23.547241 31.464844,-41.09375c10.299988,-33.358368 0.894653,-73.53302 -24.24884,-99.654114c-15.556519,-13.636444 -36.933533,-15.365417 -56.11026,-18.408386c-5.368866,-0.58075 -10.762024,-0.900452 -16.130676,-0.78125l-0.000031,0z"/>
  <path fill="#b0b0c7" fill-rule="evenodd" stroke-width="1px" id="path2383" d="m440.717102,398.890594c8.771179,-7.55426 24.050659,-23.921814 22.44458,-57.915955c-1.605957,-33.994171 -20.719666,-65.470245 -37.29541,-69.876892c-16.575745,-4.406647 -83.77594,-27.698929 -94.016815,22.033264c-10.240875,49.732178 31.451324,66.099731 42.063965,64.211182c10.61264,-1.88855 21.324402,-28.328461 21.324402,-28.328461c0,0 -3.66806,28.957977 -16.739349,32.105621c-13.071228,3.147583 -46.044281,-1.888611 -55.323547,-38.400818c-9.279266,-36.512268 9.76004,-46.584625 -2.979095,-49.732208c-16.968018,-4.192505 -62.168976,-10.072357 -97.461807,15.738037c-35.292862,25.810364 -46.163254,75.542572 -36.958359,70.506378c9.204941,-5.036133 12.838287,-21.403687 15.291901,-9.44281c2.453674,11.960938 12.15921,30.846558 20.69989,38.400818c8.54068,7.55426 -3.767212,53.509338 -1.491974,61.693115c2.275208,8.183777 15.61412,10.701904 25.686447,10.701904c10.072342,0 32.764847,0.629517 31.178665,-6.295227c-1.586182,-6.924744 -9.735291,-19.515198 -10.98938,-32.735168c-1.254089,-13.21991 7.98053,-17.626587 11.787415,-16.99707c3.806854,0.629517 5.938324,6.075928 21.701141,6.295227c15.111969,0.210266 14.90033,-4.406677 21.225281,-3.7771c6.324951,0.629517 10.548218,10.072327 11.083557,21.403687c0.535339,11.331421 -3.425201,20.774231 -3.127777,27.069458c0.297424,6.295227 45.682465,7.55426 47.214111,0c1.531677,-7.55426 -6.498444,-17.626587 -6.94455,-27.069458c-0.446136,-9.44281 -0.079315,-28.32843 11.643646,-33.364624c11.722961,-5.036163 23.778107,-16.367523 31.68924,-8.813263c7.911133,7.55426 -19.673798,23.292297 -19.649017,37.141785c0.02478,13.849457 12.669769,28.3284 15.817352,28.3284c3.147644,0 16.189148,-3.7771 16.461731,-11.33136c0.272583,-7.55423 -10.310242,-5.036163 -10.726624,-13.849487c-0.416382,-8.813293 17.25531,-19.831299 26.390381,-27.698944l0,-0.000031z"/>
  <path fill="#ffffff" fill-rule="evenodd" stroke="#000000" stroke-width="6" stroke-miterlimit="4" id="path3219" d="m266.345154,464.231049c7.728058,-1.060669 17.190491,-2.82843 16.956635,-7.778137c-0.233856,-4.949768 -6.408508,-15.909912 -6.408508,-15.909912c0,0 -5.033264,-1.767761 -9.058777,2.82843c-4.025482,4.596191 -4.417999,18.738342 -1.489349,20.859619z"/>
  <path fill="#ffffff" fill-rule="evenodd" stroke="#000000" stroke-width="6" stroke-miterlimit="4" id="path3221" d="m366.047211,464.739044c7.728058,-1.060669 17.190491,-2.82843 16.956635,-7.778198c-0.233826,-4.949707 -6.408508,-15.909912 -6.408508,-15.909912c0,0 -5.033264,-1.767761 -9.058777,2.82843c-4.025482,4.596191 -4.417999,18.738342 -1.489349,20.85968z"/>
  <path fill="#ffffff" fill-rule="evenodd" stroke="#000000" stroke-width="2" stroke-miterlimit="4" id="path3221" d="m112.777031,459.442017c3.714493,-0.509796 8.262642,-1.359467 8.150238,-3.738586c-0.112396,-2.379089 -3.080261,-7.647156 -3.080261,-7.647156c0,0 -2.41925,-0.84967 -4.354126,1.359497c-1.93486,2.209167 -2.123535,9.006622 -0.715851,10.026245z"/>
 </g>
 <g display="inline">
  <title>Layer 2</title>
  <path fill="#000000" fill-rule="nonzero" stroke-width="2" stroke-linecap="round" stroke-linejoin="round" stroke-miterlimit="4" id="path3195" d="m438.755188,334.348053a6.29522,6.29522 0 1 1-12.590454,0a6.29522,6.29522 0 1 112.590454,0z"/>
  <metadata transform="translate(0,1) translate(0,0) scale(0.25) translate(0,0) " id="svg_14">image/svg+xml</metadata>
  <title transform="translate(0,1) translate(0,0) scale(0.25) translate(0,0) ">baby elephant and adult elephant</title>
  <path fill="#000000" fill-rule="nonzero" stroke-width="2" stroke-linecap="round" stroke-linejoin="round" stroke-miterlimit="4" id="path3195" d="m149.418732,398.478699a3.02581,3.02581 0 1 1-6.051651,0a3.02581,3.02581 0 1 16.051651,0z"/>
  <title transform="translate(0,-1) translate(0,1) translate(0,0) scale(0.25) translate(0,0) ">Layer 2</title>
 </g>
</svg>