<?xml version="1.0" encoding="UTF-8" standalone="no"?>
<!DOCTYPE svg PUBLIC "-//W3C//DTD SVG 1.1//EN" "http://www.w3.org/Graphics/SVG/1.1/DTD/svg11.dtd">
<svg version="1.1" xmlns="http://www.w3.org/2000/svg" xmlns:xlink="http://www.w3.org/1999/xlink" preserveAspectRatio="xMidYMid meet" viewBox="0 0 555 300" width="555" height="300"><defs><path d="M154.5 140.6C150.81 137.62 144.32 137.98 139.38 137.27C118.97 135.32 97.21 143.27 86.79 160.93C82.34 167.82 78.1 175.94 79.22 184.63C79.98 188.49 85.06 188.99 87.61 186.88C88.38 186.73 89.25 184.42 89.45 186.1C91.45 191.92 95.7 196.78 98.75 202.08C100.31 211.52 94.68 220.67 97.73 230.03C101.24 236.39 109.51 237.29 115.89 236.7C120.98 236.58 127.55 237.44 130.94 233.01C133.5 227.98 128.64 222.98 127.34 218.15C126.52 215.62 125.8 211.78 128.07 210.1C130.46 210.46 132.31 212.67 134.86 212.65C139.62 213.62 144.44 212 148.94 211.74C152.45 217.18 149.23 223.34 149.04 229.04C149 232.61 151.97 235.54 155.45 236.01C161.36 237.49 167.5 236.72 173.39 236.28C177.72 235.34 180.86 230.53 178.82 226.16C177 220.74 174.43 214.9 176.56 209.43C185.45 201.96 188.6 199.82 191.15 199.35C237.14 188.84 252.64 137.7 235.01 135.91C228.03 150.59 219.81 155.31 207.72 142.75C200.25 136.2 189.97 135.37 180.75 133.9C178.17 133.62 175.58 133.47 173 133.53C173 133.53 173 133.53 173 133.53C164.22 135.07 158.05 137.43 154.5 140.6Z" id="eiLUpn5mo"></path><path d="M219.44 154.06C203.39 150.97 205.09 147.01 198.51 142.35C190.54 140.23 158.25 129.03 153.32 152.94C148.4 176.84 168.44 184.71 173.54 183.8C178.64 182.89 183.79 170.18 183.79 170.18C183.79 170.18 182.03 184.1 175.74 185.62C169.46 187.13 153.61 184.71 149.15 167.16C144.69 149.61 153.84 144.77 147.72 143.25C139.57 141.24 117.84 138.41 100.88 150.82C83.91 163.23 78.69 187.13 83.11 184.71C87.54 182.29 89.28 174.42 90.46 180.17C91.64 185.92 96.31 195 100.41 198.63C104.52 202.26 98.6 224.35 99.69 228.28C100.79 232.21 107.2 233.42 112.04 233.42C116.88 233.42 127.79 233.73 127.03 230.4C126.26 227.07 122.35 221.02 121.74 214.66C121.14 208.31 125.58 206.19 127.41 206.49C129.24 206.8 130.26 209.41 137.84 209.52C145.1 209.62 145 207.4 148.04 207.7C151.08 208.01 153.11 212.55 153.37 217.99C153.63 223.44 151.72 227.98 151.87 231C152.01 234.03 173.82 234.63 174.56 231C175.3 227.37 171.44 222.53 171.22 217.99C171.01 213.45 171.18 204.38 176.82 201.96C182.45 199.54 186.86 195.01 192.75 196.33C206.31 194.33 237.26 171.12 240.96 142.57C240.59 142.35 238.71 141.26 235.35 139.3C236.28 147.93 230.97 152.85 219.44 154.06Z" id="dp1Oavch9"></path><path d="M129.56 231.85C129.45 229.47 126.48 224.2 126.48 224.2C126.48 224.2 124.06 223.35 122.13 225.56C120.19 227.77 120 234.57 121.41 235.59C125.13 235.08 129.67 234.23 129.56 231.85Z" id="a3cWMgwOu"></path><path d="M388.56 43.47C380.88 37.26 367.37 38.01 357.1 36.54C314.63 32.49 269.35 49.02 247.68 85.76C238.42 100.1 229.6 117 231.94 135.07C233.52 143.1 244.08 144.14 249.38 139.76C250.98 139.44 252.8 134.63 253.21 138.13C257.37 150.25 266.2 160.36 272.56 171.38C275.8 191.02 264.09 210.06 270.43 229.54C277.74 242.77 294.94 244.64 308.21 243.41C318.81 243.16 332.48 244.94 339.54 235.72C344.86 225.27 334.75 214.86 332.05 204.82C330.34 199.54 328.83 191.56 333.57 188.07C338.54 188.81 342.39 193.41 347.69 193.38C357.59 195.4 367.62 192.01 376.98 191.47C384.29 202.79 377.59 215.6 377.18 227.47C377.11 234.9 383.27 240.99 390.52 241.97C402.82 245.05 415.6 243.45 427.86 242.54C436.86 240.58 443.39 230.57 439.15 221.47C435.36 210.21 430.02 198.06 434.44 186.66C436.79 178.91 444.01 174.48 451.22 172.07C452.94 171.14 459.05 166.68 458.56 168.38C449.76 178.23 437.94 189.96 441.74 205.04C444.25 215.78 450.09 227.21 460.15 232.72C474.04 238.76 492.39 226.23 488.46 210.94C487.2 206.41 482.68 203.63 479.31 201.22C480.82 195.26 488 192.78 492.07 188.69C506.24 178.39 519.02 165.15 523.53 147.6C533.83 114.24 524.42 74.07 499.28 47.95C483.72 34.31 462.35 32.58 443.17 29.54C437.8 28.96 432.41 28.64 427.04 28.76C427.04 28.76 427.04 28.76 427.04 28.76C408.77 31.97 395.94 36.88 388.56 43.47Z" id="c2eG7Aic7h"></path><path d="M519.41 115.97C517.81 81.98 498.69 50.5 482.12 46.1C465.54 41.69 398.34 18.4 388.1 68.13C377.86 117.86 419.55 134.23 430.16 132.34C440.78 130.45 451.49 104.01 451.49 104.01C451.49 104.01 447.82 132.97 434.75 136.12C421.68 139.27 388.7 134.23 379.42 97.72C370.15 61.21 389.18 51.13 376.45 47.99C359.48 43.79 314.28 37.91 278.98 63.72C243.69 89.53 232.82 139.27 242.03 134.23C251.23 129.19 254.86 112.83 257.32 124.79C259.77 136.75 269.48 155.63 278.02 163.19C286.56 170.74 274.25 216.7 276.53 224.88C278.8 233.07 292.14 235.58 302.21 235.58C312.28 235.58 334.98 236.21 333.39 229.29C331.8 222.36 323.66 209.77 322.4 196.55C321.15 183.33 330.38 178.93 334.19 179.56C338 180.19 340.13 185.63 355.89 185.85C371 186.06 370.79 181.44 377.12 182.07C383.44 182.7 387.66 192.15 388.2 203.48C388.73 214.81 384.77 224.25 385.07 230.55C385.37 236.84 430.75 238.1 432.28 230.55C433.82 222.99 425.79 212.92 425.34 203.48C424.89 194.04 425.26 175.15 436.98 170.11C448.71 165.08 460.76 153.75 468.67 161.3C476.58 168.85 449 184.59 449.02 198.44C449.05 212.29 461.69 226.77 464.84 226.77C467.99 226.77 481.03 222.99 481.3 215.44C481.58 207.88 470.99 210.4 470.58 201.59C470.16 192.78 487.83 181.76 496.97 173.89C496.97 173.89 496.97 173.89 496.97 173.89C513 157.94 520.48 138.64 519.41 115.97Z" id="cibLmlM4v"></path><path d="M339.55 231.45C339.32 226.5 333.14 215.54 333.14 215.54C333.14 215.54 328.11 213.78 324.08 218.37C320.06 222.97 319.67 237.11 322.6 239.23C330.32 238.17 339.79 236.4 339.55 231.45Z" id="b1AU3rAqAW"></path><path d="M439.25 231.96C439.02 227.01 432.85 216.05 432.85 216.05C432.85 216.05 427.81 214.28 423.79 218.88C419.76 223.48 419.37 237.62 422.3 239.74C430.03 238.68 439.49 236.91 439.25 231.96Z" id="c1fq6cwLHT"></path><path d="M177.18 230.7C177.06 228.32 174.1 223.06 174.1 223.06C174.1 223.06 171.68 222.21 169.74 224.42C167.81 226.62 167.62 233.42 169.03 234.44C172.74 233.93 177.29 233.08 177.18 230.7Z" id="b65jRRR0f"></path><path d="M495.01 109.35C495.01 112.82 492.19 115.64 488.71 115.64C485.23 115.64 482.41 112.82 482.41 109.35C482.41 109.35 482.41 109.35 482.41 109.35" id="c2RzvvFUWu"></path><path d="M205.67 173.48C205.67 175.15 204.31 176.5 202.64 176.5C200.97 176.5 199.62 175.15 199.62 173.48" id="d17FznSzYY"></path></defs><g><g><g><use xlink:href="#eiLUpn5mo" opacity="1" fill="#000000" fill-opacity="1"></use><g><use xlink:href="#eiLUpn5mo" opacity="1" fill-opacity="0" stroke="#000000" stroke-width="1" stroke-opacity="0"></use></g></g><g><use xlink:href="#dp1Oavch9" opacity="1" fill="#b0b0c7" fill-opacity="1"></use><g><use xlink:href="#dp1Oavch9" opacity="1" fill-opacity="0" stroke="#000000" stroke-width="1" stroke-opacity="0"></use></g></g><g><use xlink:href="#a3cWMgwOu" opacity="1" fill="#ffffff" fill-opacity="1"></use><g><use xlink:href="#a3cWMgwOu" opacity="1" fill-opacity="0" stroke="#000000" stroke-width="2" stroke-opacity="1"></use></g></g><g><use xlink:href="#c2eG7Aic7h" opacity="1" fill="#000000" fill-opacity="1"></use><g><use xlink:href="#c2eG7Aic7h" opacity="1" fill-opacity="0" stroke="#000000" stroke-width="1" stroke-opacity="0"></use></g></g><g><use xlink:href="#cibLmlM4v" opacity="1" fill="#b0b0c7" fill-opacity="1"></use><g><use xlink:href="#cibLmlM4v" opacity="1" fill-opacity="0" stroke="#000000" stroke-width="1" stroke-opacity="0"></use></g></g><g><use xlink:href="#b1AU3rAqAW" opacity="1" fill="#ffffff" fill-opacity="1"></use><g><use xlink:href="#b1AU3rAqAW" opacity="1" fill-opacity="0" stroke="#000000" stroke-width="6" stroke-opacity="1"></use></g></g><g><use xlink:href="#c1fq6cwLHT" opacity="1" fill="#ffffff" fill-opacity="1"></use><g><use xlink:href="#c1fq6cwLHT" opacity="1" fill-opacity="0" stroke="#000000" stroke-width="6" stroke-opacity="1"></use></g></g><g><use xlink:href="#b65jRRR0f" opacity="1" fill="#ffffff" fill-opacity="1"></use><g><use xlink:href="#b65jRRR0f" opacity="1" fill-opacity="0" stroke="#000000" stroke-width="2" stroke-opacity="1"></use></g></g><g><use xlink:href="#c2RzvvFUWu" opacity="1" fill="#000000" fill-opacity="1"></use><g><use xlink:href="#c2RzvvFUWu" opacity="1" fill-opacity="0" stroke="#000000" stroke-width="2" stroke-opacity="0"></use></g></g><g><use xlink:href="#d17FznSzYY" opacity="1" fill="#000000" fill-opacity="1"></use><g><use xlink:href="#d17FznSzYY" opacity="1" fill-opacity="0" stroke="#000000" stroke-width="2" stroke-opacity="0"></use></g></g></g></g></svg>